
      <svg data-logo="logo" xmlns="http://www.w3.org/2000/svg" viewBox="0 0 352.6199951171875 41">
        <g id="logogram" transform="
    translate(0, 0.5)
    rotate(0 29 20)
    
  "><path fill-rule="evenodd" clip-rule="evenodd" d="M24.6625 0C29.5499 0.000157557 33.512 3.87456 33.5121 8.65224C33.5121 8.91866 33.4997 9.18398 33.4824 9.44828H40.9366C48.1871 9.44828 51.0342 18.6407 45.0014 22.5723L37.1131 27.7122C35.415 28.8193 35.8805 31.3743 37.8654 31.84C38.5143 31.9921 39.1997 31.8658 39.7475 31.4934L44.3242 28.1927C44.4979 28.0675 44.7074 28 44.9225 28H57.4922C57.9872 28 58.1886 28.6281 57.7838 28.909L44.4783 38.1397C41.99 39.8319 38.8796 40.4048 35.9321 39.7133C26.9186 37.5986 24.8061 26.0015 32.5185 20.9749L37.7818 17.5457H29.7048H24.5358C23.0515 17.5457 21.6504 17.1926 20.4171 16.5691C21.7314 17.4535 24.9805 18.4377 27.7216 18.6251C27.9658 18.6251 28.3625 18.8385 27.8901 19.3183L11.2952 35.7067C11.105 35.8945 10.847 36 10.578 36H0.507884C0.056246 36 -0.169872 35.4613 0.149574 35.1463L19.5219 16.0472C17.1349 14.4709 15.5652 11.8013 15.5649 8.77349C15.5649 3.92875 19.5825 0 24.5385 0H24.6625ZM24.8419 6.74915C23.6982 6.74915 22.771 7.35337 22.771 8.09871C22.7715 8.71319 23.4024 9.23009 24.2648 9.39292C24.3487 9.42847 24.4413 9.44828 24.5385 9.44828H25.1533C25.1544 9.44225 25.1535 9.43586 25.1546 9.42983C26.1495 9.33152 26.9122 8.77441 26.9127 8.09871C26.9127 7.35337 25.9855 6.74915 24.8419 6.74915Z" fill="#0078E0"/></g>
        <g id="logotype" transform="translate(64, 1.1750000000000007)"><path fill="#ffffff" d="M27.42 32L8.13 32L8.13 7.01L14.47 7.01L14.47 26.96L27.42 26.96L27.42 32ZM39.29 32.49L39.29 32.49Q36.10 32.49 33.76 31.27Q31.41 30.04 30.17 27.91Q28.93 25.77 28.93 23.00L28.93 23.00Q28.93 21.32 29.38 19.87Q29.84 18.42 30.71 17.27Q31.59 16.11 32.84 15.27Q34.11 14.43 35.72 13.97Q37.33 13.52 39.25 13.52L39.25 13.52Q41.49 13.52 43.36 14.13Q45.23 14.74 46.55 16.02Q47.86 17.30 48.56 19.36Q49.26 21.43 49.19 24.34L49.19 24.34L32.81 24.34L32.81 21.11L43.45 21.11Q43.28 20.13 42.92 19.49Q42.58 18.84 42.02 18.40Q41.45 17.96 40.76 17.77Q40.05 17.58 39.22 17.58L39.22 17.58Q38.30 17.58 37.57 17.82Q36.84 18.07 36.29 18.54Q35.75 19.02 35.38 19.68Q35.02 20.34 34.84 21.18Q34.66 22.02 34.66 23.00L34.66 23.00Q34.66 24.65 35.16 25.88Q35.65 27.10 36.70 27.77Q37.75 28.43 39.32 28.43L39.32 28.43Q40.69 28.43 41.63 28.01Q42.58 27.59 43.03 26.82L43.03 26.82L49.09 26.82Q48.77 28.29 47.63 29.59Q46.50 30.88 44.43 31.68Q42.37 32.49 39.29 32.49ZM65.22 32L60.04 32Q57.34 32 55.77 30.51Q54.20 29.02 54.20 26.43L54.20 26.43L54.20 9.14L60.18 9.14L60.18 25.14Q60.18 26.36 60.83 27.06Q61.47 27.77 62.70 27.77L62.70 27.77L65.22 27.77L65.22 32ZM54.75 18.24L50.55 18.24L50.55 14.01L54.75 14.01L54.75 18.24ZM65.22 18.24L59.62 18.24L59.62 14.01L65.22 14.01L65.22 18.24ZM74.36 32L68.34 32L68.34 7.01L74.36 7.01L74.36 18.63L73.80 17.93Q74.46 16.49 75.53 15.51Q76.59 14.53 78.01 14.03Q79.43 13.52 81.18 13.52L81.18 13.52Q83.39 13.52 84.87 14.41Q86.36 15.30 87.13 17.04Q87.90 18.77 87.90 21.25L87.90 21.25L87.90 32L81.84 32L81.84 22.23Q81.84 20.34 80.99 19.26Q80.13 18.17 78.45 18.17L78.45 18.17Q77.16 18.17 76.25 18.79Q75.34 19.40 74.84 20.43Q74.36 21.46 74.36 22.69L74.36 22.69L74.36 32ZM96.90 32.49L96.90 32.49Q93.92 32.49 92.24 31.07Q90.56 29.66 90.56 27.27L90.56 27.27Q90.56 25.66 91.33 24.49Q92.10 23.32 93.68 22.55Q95.25 21.78 97.59 21.46L97.59 21.46L102.04 20.91Q102.81 20.77 103.20 20.40Q103.58 20.03 103.58 19.40L103.58 19.40L103.58 19.36Q103.58 18.73 103.23 18.30Q102.88 17.86 102.22 17.65Q101.55 17.44 100.57 17.44L100.57 17.44Q99.17 17.44 98.30 17.81Q97.42 18.17 97.25 19.09L97.25 19.09L91.33 19.09Q91.65 17.16 92.89 15.93Q94.13 14.71 96.13 14.11Q98.12 13.52 100.71 13.52L100.71 13.52Q103.65 13.52 105.63 14.27Q107.61 15.02 108.57 16.55Q109.53 18.07 109.53 20.41L109.53 20.41L109.53 32L103.90 32L103.90 27.38L104.49 28.04Q103.83 29.59 102.72 30.55Q101.62 31.51 100.15 32Q98.68 32.49 96.90 32.49ZM99.00 28.36L99.00 28.36Q100.05 28.36 100.90 27.99Q101.76 27.63 102.37 27.01Q102.99 26.40 103.28 25.63Q103.58 24.86 103.58 24.02L103.58 24.02L103.58 21.74L104.53 22.90Q104.11 23.32 103.49 23.53Q102.88 23.74 101.66 23.98L101.66 23.98L98.72 24.51Q97.67 24.75 97.12 25.24Q96.58 25.73 96.58 26.47L96.58 26.47Q96.58 27.38 97.25 27.87Q97.91 28.36 99.00 28.36ZM125.70 32.49L125.70 32.49Q123.95 32.49 122.53 32.02Q121.12 31.55 120.10 30.74Q119.09 29.93 118.49 28.85L118.49 28.85L118.98 27.87L118.98 32L113.00 32L113.00 7.01L118.98 7.01L118.98 18.10L118.49 17.16Q119.09 16.04 120.10 15.23Q121.12 14.43 122.53 13.97Q123.95 13.52 125.70 13.52L125.70 13.52Q127.84 13.52 129.71 14.55Q131.58 15.58 132.74 17.68Q133.89 19.78 133.89 22.97L133.89 22.97Q133.89 24.89 133.44 26.42Q132.98 27.94 132.23 29.09Q131.48 30.25 130.43 31.00Q129.38 31.75 128.17 32.12Q126.96 32.49 125.70 32.49ZM123.39 28.11L123.39 28.11Q124.23 28.11 124.91 27.87Q125.60 27.63 126.14 27.17Q126.68 26.71 127.07 26.09Q127.45 25.45 127.61 24.67Q127.77 23.88 127.77 22.97L127.77 22.97Q127.77 21.50 127.26 20.34Q126.75 19.19 125.77 18.54Q124.79 17.89 123.39 17.89L123.39 17.89Q122.52 17.89 121.83 18.14Q121.15 18.38 120.61 18.84Q120.07 19.29 119.68 19.92Q119.30 20.55 119.10 21.32Q118.91 22.09 118.91 23.00L118.91 23.00Q118.91 24.51 119.45 25.65Q120.00 26.79 120.98 27.45Q121.96 28.11 123.39 28.11ZM146.35 32.49L146.35 32.49Q143.06 32.49 140.73 31.30Q138.41 30.11 137.16 27.96Q135.92 25.80 135.92 23.00L135.92 23.00Q135.92 21.32 136.36 19.87Q136.80 18.42 137.67 17.25Q138.55 16.07 139.82 15.23Q141.10 14.39 142.73 13.96Q144.36 13.52 146.35 13.52L146.35 13.52Q149.68 13.52 152.00 14.73Q154.33 15.93 155.56 18.07Q156.78 20.20 156.78 23.00L156.78 23.00Q156.78 24.68 156.33 26.16Q155.87 27.63 155.01 28.78Q154.16 29.93 152.90 30.77Q151.64 31.61 149.97 32.05Q148.31 32.49 146.35 32.49ZM146.35 28.15L146.35 28.15Q147.23 28.15 147.91 27.92Q148.59 27.70 149.12 27.24Q149.64 26.79 149.99 26.17Q150.34 25.56 150.52 24.74Q150.69 23.91 150.69 23.00L150.69 23.00Q150.69 21.39 150.20 20.24Q149.71 19.09 148.75 18.47Q147.79 17.86 146.35 17.86L146.35 17.86Q145.48 17.86 144.78 18.09Q144.08 18.31 143.59 18.75Q143.10 19.19 142.73 19.82Q142.36 20.45 142.19 21.24Q142.01 22.02 142.01 23.00L142.01 23.00Q142.01 24.58 142.50 25.73Q142.99 26.89 143.95 27.52Q144.92 28.15 146.35 28.15ZM174.70 32L169.00 32L169.00 7.01L177.82 7.01L184.68 27.13L182.51 27.17L189.65 7.01L198.08 7.01L198.08 32L191.85 32L191.85 11.49L193.11 11.70L185.73 32L180.72 32L173.65 12.22L174.70 12.05L174.70 32ZM207.60 32.49L207.60 32.49Q204.63 32.49 202.95 31.07Q201.27 29.66 201.27 27.27L201.27 27.27Q201.27 25.66 202.04 24.49Q202.81 23.32 204.38 22.55Q205.96 21.78 208.30 21.46L208.30 21.46L212.75 20.91Q213.52 20.77 213.90 20.40Q214.29 20.03 214.29 19.40L214.29 19.40L214.29 19.36Q214.29 18.73 213.94 18.30Q213.59 17.86 212.92 17.65Q212.26 17.44 211.28 17.44L211.28 17.44Q209.88 17.44 209.00 17.81Q208.13 18.17 207.95 19.09L207.95 19.09L202.04 19.09Q202.35 17.16 203.59 15.93Q204.84 14.71 206.83 14.11Q208.83 13.52 211.42 13.52L211.42 13.52Q214.36 13.52 216.33 14.27Q218.31 15.02 219.27 16.55Q220.24 18.07 220.24 20.41L220.24 20.41L220.24 32L214.60 32L214.60 27.38L215.20 28.04Q214.53 29.59 213.43 30.55Q212.33 31.51 210.86 32Q209.39 32.49 207.60 32.49ZM209.70 28.36L209.70 28.36Q210.75 28.36 211.61 27.99Q212.47 27.63 213.08 27.01Q213.69 26.40 213.99 25.63Q214.29 24.86 214.29 24.02L214.29 24.02L214.29 21.74L215.23 22.90Q214.81 23.32 214.20 23.53Q213.59 23.74 212.36 23.98L212.36 23.98L209.42 24.51Q208.37 24.75 207.83 25.24Q207.29 25.73 207.29 26.47L207.29 26.47Q207.29 27.38 207.95 27.87Q208.62 28.36 209.70 28.36ZM233.12 32.49L233.12 32.49Q229.93 32.49 227.59 31.27Q225.24 30.04 224.00 27.91Q222.76 25.77 222.76 23.00L222.76 23.00Q222.76 21.32 223.21 19.87Q223.67 18.42 224.54 17.27Q225.42 16.11 226.68 15.27Q227.94 14.43 229.55 13.97Q231.16 13.52 233.08 13.52L233.08 13.52Q235.32 13.52 237.19 14.13Q239.07 14.74 240.38 16.02Q241.69 17.30 242.39 19.36Q243.09 21.43 243.02 24.34L243.02 24.34L226.64 24.34L226.64 21.11L237.28 21.11Q237.11 20.13 236.76 19.49Q236.41 18.84 235.85 18.40Q235.29 17.96 234.59 17.77Q233.89 17.58 233.05 17.58L233.05 17.58Q232.14 17.58 231.40 17.82Q230.67 18.07 230.12 18.54Q229.58 19.02 229.21 19.68Q228.85 20.34 228.67 21.18Q228.50 22.02 228.50 23.00L228.50 23.00Q228.50 24.65 228.99 25.88Q229.48 27.10 230.53 27.77Q231.58 28.43 233.15 28.43L233.15 28.43Q234.52 28.43 235.46 28.01Q236.41 27.59 236.86 26.82L236.86 26.82L242.92 26.82Q242.60 28.29 241.46 29.59Q240.33 30.88 238.26 31.68Q236.20 32.49 233.12 32.49ZM251.88 38.65L245.86 38.65L245.86 14.01L251.88 14.01L251.88 18.14L251.35 17.13Q251.91 16.07 252.93 15.27Q253.94 14.46 255.36 13.99Q256.78 13.52 258.56 13.52L258.56 13.52Q260.73 13.52 262.59 14.57Q264.44 15.62 265.58 17.72Q266.72 19.82 266.72 23.04L266.72 23.04Q266.72 24.93 266.30 26.45Q265.88 27.98 265.11 29.11Q264.34 30.25 263.30 30.98Q262.27 31.72 261.06 32.10Q259.86 32.49 258.56 32.49L258.56 32.49Q256.78 32.49 255.36 32.03Q253.94 31.58 252.93 30.74Q251.91 29.90 251.35 28.85L251.35 28.85L251.88 27.91L251.88 38.65ZM256.22 28.11L256.22 28.11Q257.09 28.11 257.77 27.87Q258.46 27.63 259.00 27.17Q259.54 26.71 259.91 26.10Q260.28 25.49 260.45 24.70Q260.63 23.91 260.63 23.04L260.63 23.04Q260.63 21.50 260.14 20.36Q259.65 19.23 258.65 18.56Q257.65 17.89 256.22 17.89L256.22 17.89Q255.41 17.89 254.71 18.14Q254.01 18.38 253.47 18.84Q252.93 19.29 252.54 19.92Q252.16 20.55 251.98 21.32Q251.81 22.09 251.81 23.00L251.81 23.00Q251.81 24.51 252.31 25.66Q252.82 26.82 253.84 27.47Q254.85 28.11 256.22 28.11ZM275.12 32.49L275.12 32.49Q272.14 32.49 270.46 31.07Q268.78 29.66 268.78 27.27L268.78 27.27Q268.78 25.66 269.55 24.49Q270.32 23.32 271.90 22.55Q273.47 21.78 275.81 21.46L275.81 21.46L280.26 20.91Q281.03 20.77 281.42 20.40Q281.80 20.03 281.80 19.40L281.80 19.40L281.80 19.36Q281.80 18.73 281.45 18.30Q281.10 17.86 280.44 17.65Q279.77 17.44 278.79 17.44L278.79 17.44Q277.39 17.44 276.52 17.81Q275.64 18.17 275.47 19.09L275.47 19.09L269.55 19.09Q269.87 17.16 271.11 15.93Q272.35 14.71 274.35 14.11Q276.34 13.52 278.93 13.52L278.93 13.52Q281.87 13.52 283.85 14.27Q285.83 15.02 286.79 16.55Q287.75 18.07 287.75 20.41L287.75 20.41L287.75 32L282.12 32L282.12 27.38L282.71 28.04Q282.05 29.59 280.94 30.55Q279.84 31.51 278.37 32Q276.90 32.49 275.12 32.49ZM277.22 28.36L277.22 28.36Q278.27 28.36 279.12 27.99Q279.98 27.63 280.59 27.01Q281.21 26.40 281.50 25.63Q281.80 24.86 281.80 24.02L281.80 24.02L281.80 21.74L282.75 22.90Q282.33 23.32 281.71 23.53Q281.10 23.74 279.88 23.98L279.88 23.98L276.94 24.51Q275.88 24.75 275.34 25.24Q274.80 25.73 274.80 26.47L274.80 26.47Q274.80 27.38 275.47 27.87Q276.13 28.36 277.22 28.36Z"/></g>
        
      </svg>
    